<svg xmlns="http://www.w3.org/2000/svg" viewBox="0 0 32 32" fill="none">
  <rect width="32" height="32" rx="8" fill="#7C3AED"/>
  <g transform="translate(4, 3) scale(0.047)">
    <!-- Lamp body from magic-lamp.svg scaled to fit favicon -->
    <ellipse cx="256" cy="440" rx="120" ry="30" fill="#B8860B" opacity="0.5"/>
    <ellipse cx="256" cy="430" rx="110" ry="25" fill="#D4A017" opacity="0.7"/>
    <path d="M146 400 C146 310, 180 260, 256 240 C332 260, 366 310, 366 400 Z" fill="#D4A017"/>
    <path d="M166 380 C170 320, 196 275, 235 255 C215 275, 190 320, 180 380 Z" fill="#FFF4C8" opacity="0.35"/>
    <ellipse cx="256" cy="400" rx="110" ry="26" fill="#FBBF24" opacity="0.6"/>
    <path d="M210 245 L206 205 C206 190, 218 180, 256 176 C294 180, 306 190, 306 205 L302 245" fill="#E8B818"/>
    <ellipse cx="256" cy="245" rx="46" ry="10" fill="#FBBF24" opacity="0.5"/>
    <path d="M216 205 C216 175, 232 155, 256 148 C280 155, 296 175, 296 205" fill="#F5C842"/>
    <circle cx="256" cy="140" r="10" fill="#FBBF24"/>
    <ellipse cx="256" cy="125" rx="6" ry="14" fill="#FBBF24" opacity="0.6"/>
    <path d="M366 370 C395 355, 420 345, 435 318 C445 300, 448 285, 440 270" stroke="#D4A017" stroke-width="20" fill="none" stroke-linecap="round"/>
    <path d="M146 340 C110 330, 88 350, 92 380 C96 400, 118 415, 146 400" stroke="#D4A017" stroke-width="16" fill="none" stroke-linecap="round"/>
  </g>
</svg>
